<svg width="60" height="79" viewBox="0 0 60 79" fill="none" xmlns="http://www.w3.org/2000/svg">
<g filter="url(#filter0_d_305_13)">
<path d="M54.5 48.8708C54.5 54.2918 51.7927 60.4745 47.286 65.3236C42.7922 70.1588 36.667 73.5 30 73.5C23.333 73.5 17.2078 70.1588 12.714 65.3236C8.20726 60.4745 5.5 54.2918 5.5 48.8708C5.5 47.6457 5.84549 46.0262 6.53293 44.0626C7.21372 42.118 8.19739 39.9258 9.3975 37.5832C11.7976 32.8984 15.0124 27.7107 18.248 22.8583C21.48 18.0114 24.7145 13.5261 27.1425 10.2509C28.3144 8.67002 29.2974 7.37253 30 6.45409C30.7026 7.37253 31.6856 8.67002 32.8575 10.2509C35.2855 13.5261 38.52 18.0114 41.752 22.8583C44.9876 27.7107 48.2024 32.8984 50.6025 37.5832C51.8026 39.9258 52.7863 42.118 53.4671 44.0626C54.1545 46.0262 54.5 47.6457 54.5 48.8708Z" stroke="white" stroke-width="3"/>
</g>
<defs>
<filter id="filter0_d_305_13" x="0" y="0" width="60" height="79" filterUnits="userSpaceOnUse" color-interpolation-filters="sRGB">
<feFlood flood-opacity="0" result="BackgroundImageFix"/>
<feColorMatrix in="SourceAlpha" type="matrix" values="0 0 0 0 0 0 0 0 0 0 0 0 0 0 0 0 0 0 127 0" result="hardAlpha"/>
<feOffset/>
<feGaussianBlur stdDeviation="2"/>
<feColorMatrix type="matrix" values="0 0 0 0 0.247059 0 0 0 0 0.588235 0 0 0 0 0.917647 0 0 0 1 0"/>
<feBlend mode="normal" in2="BackgroundImageFix" result="effect1_dropShadow_305_13"/>
<feBlend mode="normal" in="SourceGraphic" in2="effect1_dropShadow_305_13" result="shape"/>
</filter>
</defs>
</svg>
